<svg width="64" height="64" viewBox="0 0 64 64" fill="none" xmlns="http://www.w3.org/2000/svg">
<g clip-path="url(#clip0_10_15)">
<path d="M11.694 38.182L13.106 36.769C13.4406 36.4356 13.8937 36.2484 14.366 36.2484C14.8384 36.2484 15.2915 36.4356 15.626 36.769L16.67 37.813C17.0042 38.1472 17.4574 38.3349 17.93 38.3349C18.4026 38.3349 18.8558 38.1472 19.19 37.813L20.234 36.769C20.5682 36.4349 21.0214 36.2471 21.494 36.2471C21.9666 36.2471 22.4198 36.4349 22.754 36.769L23.797 37.813C24.1313 38.1469 24.5845 38.3345 25.057 38.3345C25.5295 38.3345 25.9827 38.1469 26.317 37.813L27.361 36.769C27.6952 36.4349 28.1484 36.2471 28.621 36.2471C29.0936 36.2471 29.5469 36.4349 29.881 36.769L30.925 37.813C31.2592 38.1468 31.7122 38.3344 32.1845 38.3344C32.6569 38.3344 33.1099 38.1468 33.444 37.813L34.488 36.769C34.8223 36.4351 35.2755 36.2475 35.748 36.2475C36.2205 36.2475 36.6737 36.4351 37.008 36.769L38.052 37.813C38.3862 38.1472 38.8395 38.3349 39.312 38.3349C39.7846 38.3349 40.2378 38.1472 40.572 37.813L41.615 36.769C41.9496 36.4356 42.4027 36.2484 42.875 36.2484C43.3474 36.2484 43.8005 36.4356 44.135 36.769L45.179 37.813C45.5132 38.1472 45.9664 38.3349 46.439 38.3349C46.9116 38.3349 47.3649 38.1472 47.699 37.813L48.743 36.769C49.0772 36.4349 49.5304 36.2471 50.003 36.2471C50.4756 36.2471 50.9289 36.4349 51.263 36.769L52.306 37.813M13.291 43H50.709M13.291 31H50.709M52.491 51.99C52.491 50.927 52.0688 49.9076 51.3171 49.1559C50.5655 48.4043 49.546 47.982 48.483 47.982H15.517C14.454 47.982 13.4346 48.4043 12.6829 49.1559C11.9313 49.9076 11.509 50.927 11.509 51.99V51.992C11.509 53.055 11.9313 54.0744 12.6829 54.8261C13.4346 55.5777 14.454 56 15.517 56H48.483C49.546 56 50.5655 55.5777 51.3171 54.8261C52.0688 54.0744 52.491 53.055 52.491 51.992V51.99ZM51.6 23.88C51.6002 21.6632 51.1636 19.4682 50.3154 17.4201C49.4671 15.3721 48.2238 13.5112 46.6563 11.9437C45.0888 10.3763 43.2279 9.1329 41.1799 8.28465C39.1319 7.43639 36.9368 6.99987 34.72 7H29.228C19.934 7 12.4 14.534 12.4 23.828V23.83C12.4 24.115 12.4562 24.3971 12.5652 24.6604C12.6743 24.9237 12.8341 25.1629 13.0356 25.3644C13.2371 25.5659 13.4763 25.7258 13.7396 25.8348C14.0029 25.9439 14.2851 26 14.57 26H49.482C50.0436 25.9995 50.582 25.7762 50.9791 25.3791C51.3762 24.982 51.5995 24.4436 51.6 23.882V23.88Z" stroke="white" stroke-width="2" stroke-miterlimit="2" stroke-linecap="round" stroke-linejoin="round"/>
<path d="M22.2 23.927C22.9379 23.927 23.536 23.3289 23.536 22.591C23.536 21.8532 22.9379 21.255 22.2 21.255C21.4622 21.255 20.864 21.8532 20.864 22.591C20.864 23.3289 21.4622 23.927 22.2 23.927Z" fill="white"/>
<path d="M36.9 15.463C37.6378 15.463 38.236 14.8649 38.236 14.127C38.236 13.3892 37.6378 12.791 36.9 12.791C36.1621 12.791 35.564 13.3892 35.564 14.127C35.564 14.8649 36.1621 15.463 36.9 15.463Z" fill="white"/>
<path d="M43.705 22.591C44.4429 22.591 45.041 21.9929 45.041 21.255C45.041 20.5172 44.4429 19.919 43.705 19.919C42.9672 19.919 42.369 20.5172 42.369 21.255C42.369 21.9929 42.9672 22.591 43.705 22.591Z" fill="white"/>
<path d="M22.2 16.354C22.9379 16.354 23.536 15.7559 23.536 15.018C23.536 14.2802 22.9379 13.682 22.2 13.682C21.4622 13.682 20.864 14.2802 20.864 15.018C20.864 15.7559 21.4622 16.354 22.2 16.354Z" fill="white"/>
</g>
<defs>
<clipPath id="clip0_10_15">
<rect width="64" height="64" fill="white"/>
</clipPath>
</defs>
</svg>
