<svg width="40" height="50" viewBox="0 0 40 50" fill="none" xmlns="http://www.w3.org/2000/svg">
<g clip-path="url(#clip0_229_18)">
<path d="M10 50.0002C15.5176 50.0002 20 46.2689 20 41.6668V33.3335H10C4.48242 33.3335 0 37.0648 0 41.6668C0 46.2689 4.48242 50.0002 10 50.0002Z" fill="#0ACF83"/>
<path d="M0 24.9998C0 20.4019 4.48242 16.6665 10 16.6665H20V33.3332H10C4.48242 33.3332 0 29.6019 0 24.9998Z" fill="#A259FF"/>
<path d="M0 8.33333C0 3.73535 4.48242 0 10 0H20V16.6667H10C4.48242 16.6667 0 12.9354 0 8.33333Z" fill="#F24E1E"/>
<path d="M20 0H30C35.5176 0 40 3.73535 40 8.33333C40 12.9354 35.5225 16.6667 30 16.6667H20V0Z" fill="#FF7262"/>
<path d="M40 24.9998C40 29.6019 35.5225 33.3332 30 33.3332C24.4775 33.3332 20 29.6019 20 24.9998C20 20.4019 24.4775 16.6665 30 16.6665C35.5225 16.6665 40 20.4019 40 24.9998Z" fill="#1ABCFE"/>
</g>
<defs>
<clipPath id="clip0_229_18">
<rect width="40" height="50" fill="white"/>
</clipPath>
</defs>
</svg>
