<svg width="100" height="102" viewBox="0 0 100 102" fill="none" xmlns="http://www.w3.org/2000/svg">
<g clip-path="url(#clip0_9_2)">
<path d="M49.1406 0C49.8438 48.9281 10.9375 51.3984 0 51.1594C10.8594 52.1156 49.1406 58.5703 49.0625 102H49.1406C49.1406 57.9328 92.6563 51.7969 100 51.0797C99.2969 51.1594 98.2813 51.1594 97.1094 51.1594C84.9219 51.1594 48.9063 47.175 49.1406 0ZM59.5312 61.2797C57.8906 59.925 47.6563 52.3547 38.4375 61.4391C47.5781 52.5141 40.9375 43.4297 38.9844 41.1187C41.0938 43.35 49.6094 50.7609 59.7656 40.5609C55.7813 44.3859 54.4531 48.0516 54.4531 51.1594C54.4531 56.4984 58.5156 60.4031 59.5312 61.2797Z" fill="white"/>
</g>
<defs>
<clipPath id="clip0_9_2">
<rect width="100" height="102" fill="white"/>
</clipPath>
</defs>
</svg>
